<svg width="64" height="64" viewBox="0 0 64 64" fill="none" xmlns="http://www.w3.org/2000/svg">
<g clip-path="url(#clip0_564_1717)">
<path d="M48 16V16.0267" stroke="#A21CAF" stroke-width="4" stroke-linecap="round" stroke-linejoin="round"/>
<path d="M47.9999 34.6667L38.6666 21.3333C37.7681 19.7094 37.3089 17.8792 37.3343 16.0235C37.3596 14.1677 37.8688 12.3507 38.8113 10.752C39.7539 9.15328 41.0973 7.82814 42.7088 6.90753C44.3202 5.98691 46.144 5.50269 47.9999 5.50269C49.8558 5.50269 51.6796 5.98691 53.2911 6.90753C54.9025 7.82814 56.2459 9.15328 57.1885 10.752C58.1311 12.3507 58.6402 14.1677 58.6656 16.0235C58.691 17.8792 58.2317 19.7094 57.3333 21.3333L47.9999 34.6667Z" stroke="#A21CAF" stroke-width="4" stroke-linecap="round" stroke-linejoin="round"/>
<path d="M28 12.6667L24 10.6667L8 18.6667V53.3334L24 45.3334L40 53.3334L56 45.3334V40.0001" stroke="#A21CAF" stroke-width="4" stroke-linecap="round" stroke-linejoin="round"/>
<path d="M24 10.6667V45.3334" stroke="#A21CAF" stroke-width="4" stroke-linecap="round" stroke-linejoin="round"/>
<path d="M40 40V53.3333" stroke="#A21CAF" stroke-width="4" stroke-linecap="round" stroke-linejoin="round"/>
</g>
<defs>
<clipPath id="clip0_564_1717">
<rect width="64" height="64" fill="white"/>
</clipPath>
</defs>
</svg>
