<svg width="48" height="48" viewBox="0 0 48 48" fill="none" xmlns="http://www.w3.org/2000/svg">
<g opacity="0.5">
<rect x="1" y="1" width="46" height="46" rx="23" fill="white"/>
<rect x="1" y="1" width="46" height="46" rx="23" stroke="white" stroke-width="2"/>
<path d="M22.757 23.9999L27.707 28.9499C27.8026 29.0422 27.8787 29.1525 27.9311 29.2745C27.9836 29.3965 28.0111 29.5278 28.0123 29.6605C28.0135 29.7933 27.9882 29.925 27.9379 30.0479C27.8876 30.1708 27.8133 30.2824 27.7194 30.3763C27.6256 30.4702 27.5139 30.5445 27.391 30.5948C27.2681 30.645 27.1364 30.6703 27.0036 30.6692C26.8709 30.668 26.7396 30.6404 26.6176 30.588C26.4956 30.5356 26.3853 30.4594 26.293 30.3639L20.636 24.7069C20.4486 24.5194 20.3433 24.2651 20.3433 23.9999C20.3433 23.7348 20.4486 23.4805 20.636 23.2929L26.293 17.6359C26.4817 17.4538 26.7343 17.353 26.9964 17.3553C27.2586 17.3575 27.5095 17.4627 27.6949 17.6481C27.8803 17.8335 27.9854 18.0843 27.9877 18.3465C27.99 18.6087 27.8892 18.8613 27.707 19.0499L22.757 23.9999Z" fill="#475569"/>
</g>
</svg>
